<svg xmlns="http://www.w3.org/2000/svg" viewBox="0 0 94.19 27.03"><defs><style>.cls-1{fill:#fff;}</style></defs><g id="Layer_2" data-name="Layer 2"><g id="Layer_1-2" data-name="Layer 1"><path d="M94.19,24.32A2.71,2.71,0,0,1,91.48,27H2.72A2.71,2.71,0,0,1,0,24.32V2.71A2.72,2.72,0,0,1,2.72,0H91.47a2.72,2.72,0,0,1,2.72,2.71V24.32Z"/><path class="cls-1" d="M20.68,13.37a4.13,4.13,0,0,1,2-3.45,4.2,4.2,0,0,0-3.31-1.78C17.94,8,16.59,9,15.88,9s-1.82-.82-3-.79a4.38,4.38,0,0,0-3.71,2.26c-1.6,2.77-.41,6.85,1.13,9.09.77,1.1,1.67,2.33,2.84,2.28s1.58-.73,3-.73,1.77.73,3,.71,2-1.11,2.75-2.22A8.71,8.71,0,0,0,23.1,17,4,4,0,0,1,20.68,13.37Z"/><path class="cls-1" d="M18.42,6.66a4,4,0,0,0,.92-2.89,4.16,4.16,0,0,0-2.66,1.37,3.86,3.86,0,0,0-.94,2.79A3.43,3.43,0,0,0,18.42,6.66Z"/><path class="cls-1" d="M37.32,21.66H35.71l-.88-2.77H31.77l-.83,2.77H29.37l3-9.42h1.87Zm-2.75-3.93-.8-2.46c-.08-.25-.24-.84-.47-1.77h0q-.14.6-.45,1.77L32,17.73Z"/><path class="cls-1" d="M45.11,18.18a3.89,3.89,0,0,1-.93,2.74,2.75,2.75,0,0,1-2.08.89,2.08,2.08,0,0,1-1.93-1h0v3.57H38.63V17.1c0-.72,0-1.47-.05-2.23H39.9L40,15.94h0a2.68,2.68,0,0,1,4.29-.26A3.72,3.72,0,0,1,45.11,18.18Zm-1.53.05a2.78,2.78,0,0,0-.45-1.63,1.53,1.53,0,0,0-1.31-.67,1.56,1.56,0,0,0-1,.37,1.72,1.72,0,0,0-.59,1,1.83,1.83,0,0,0-.07.46v1.13a1.77,1.77,0,0,0,.46,1.25,1.49,1.49,0,0,0,1.18.51A1.55,1.55,0,0,0,43.1,20,2.89,2.89,0,0,0,43.58,18.23Z"/><path class="cls-1" d="M52.92,18.18A3.85,3.85,0,0,1,52,20.92a2.74,2.74,0,0,1-2.08.89,2.07,2.07,0,0,1-1.92-1h0v3.57H46.44V17.1c0-.72,0-1.47-.06-2.23h1.33l.09,1.07h0a2.52,2.52,0,0,1,2.29-1.21,2.55,2.55,0,0,1,2,.95A3.77,3.77,0,0,1,52.92,18.18Zm-1.54.05a2.77,2.77,0,0,0-.44-1.63,1.61,1.61,0,0,0-2.33-.3,1.72,1.72,0,0,0-.59,1,1.83,1.83,0,0,0-.07.46v1.13a1.81,1.81,0,0,0,.45,1.25,1.51,1.51,0,0,0,1.18.51A1.57,1.57,0,0,0,50.91,20,2.89,2.89,0,0,0,51.38,18.23Z"/><path class="cls-1" d="M61.65,19A2.49,2.49,0,0,1,60.81,21a3.68,3.68,0,0,1-2.56.83,4.52,4.52,0,0,1-2.44-.59L56.16,20a4.13,4.13,0,0,0,2.18.6,2,2,0,0,0,1.33-.38,1.28,1.28,0,0,0,.47-1,1.34,1.34,0,0,0-.39-1,3.56,3.56,0,0,0-1.3-.72C56.8,16.83,56,15.93,56,14.75a2.4,2.4,0,0,1,.87-1.91,3.42,3.42,0,0,1,2.3-.74,4.55,4.55,0,0,1,2.14.45l-.38,1.23a3.69,3.69,0,0,0-1.8-.43,1.81,1.81,0,0,0-1.24.39,1.11,1.11,0,0,0-.38.85,1.14,1.14,0,0,0,.43.92,5,5,0,0,0,1.37.73,4.65,4.65,0,0,1,1.79,1.14A2.43,2.43,0,0,1,61.65,19Z"/><path class="cls-1" d="M66.64,16H65v3.3c0,.83.29,1.25.88,1.25a2.6,2.6,0,0,0,.67-.07l0,1.15a3.47,3.47,0,0,1-1.18.17A1.81,1.81,0,0,1,64,21.25a2.63,2.63,0,0,1-.51-1.83V16h-1V14.87h1V13.63L65,13.18v1.69h1.66Z"/><path class="cls-1" d="M74.14,18.21a3.71,3.71,0,0,1-.9,2.57,3.17,3.17,0,0,1-2.48,1,3,3,0,0,1-2.38-1,3.63,3.63,0,0,1-.89-2.5,3.72,3.72,0,0,1,.91-2.59,3.18,3.18,0,0,1,2.47-1,3.09,3.09,0,0,1,2.4,1A3.57,3.57,0,0,1,74.14,18.21Zm-1.57.05a3.09,3.09,0,0,0-.4-1.62,1.5,1.5,0,0,0-1.36-.81,1.52,1.52,0,0,0-1.38.81,3.14,3.14,0,0,0-.4,1.64,3,3,0,0,0,.4,1.61,1.52,1.52,0,0,0,1.37.82,1.5,1.5,0,0,0,1.35-.83A3.05,3.05,0,0,0,72.57,18.26Z"/><path class="cls-1" d="M79,16.2a2.42,2.42,0,0,0-.47-.05,1.41,1.41,0,0,0-1.23.6A2.23,2.23,0,0,0,77,18.09v3.57H75.45V17c0-.79,0-1.5,0-2.14h1.31l.06,1.3h0a2.35,2.35,0,0,1,.75-1.08,1.85,1.85,0,0,1,1.09-.36,2.17,2.17,0,0,1,.38,0Z"/><path class="cls-1" d="M85.79,17.94a3.4,3.4,0,0,1-.06.69H81.21a1.92,1.92,0,0,0,.65,1.53,2.23,2.23,0,0,0,1.48.48,5.09,5.09,0,0,0,1.83-.32l.24,1a5.66,5.66,0,0,1-2.28.42,3.3,3.3,0,0,1-2.48-.93,3.43,3.43,0,0,1-.9-2.49,3.91,3.91,0,0,1,.84-2.56A2.91,2.91,0,0,1,83,14.72a2.56,2.56,0,0,1,2.23,1.08A3.67,3.67,0,0,1,85.79,17.94Zm-1.44-.39a2,2,0,0,0-.3-1.16,1.31,1.31,0,0,0-1.2-.63,1.44,1.44,0,0,0-1.2.62,2.16,2.16,0,0,0-.44,1.17Z"/><path class="cls-1" d="M34.07,6.45a2.32,2.32,0,0,1-.75,1.88,3,3,0,0,1-2,.58,8.51,8.51,0,0,1-1.08-.05V4.31a8.39,8.39,0,0,1,1.27-.1,2.8,2.8,0,0,1,1.84.53A2.14,2.14,0,0,1,34.07,6.45Zm-.78,0a1.71,1.71,0,0,0-.43-1.24,1.68,1.68,0,0,0-1.25-.43,2.58,2.58,0,0,0-.6,0V8.3a3.06,3.06,0,0,0,.5,0,1.71,1.71,0,0,0,1.31-.47A1.87,1.87,0,0,0,33.29,6.47Z"/><path class="cls-1" d="M38.21,7.18a1.79,1.79,0,0,1-.44,1.26A1.55,1.55,0,0,1,36.55,9a1.48,1.48,0,0,1-1.17-.49A1.76,1.76,0,0,1,35,7.23,1.83,1.83,0,0,1,35.4,6a1.55,1.55,0,0,1,1.21-.49A1.51,1.51,0,0,1,37.79,6,1.76,1.76,0,0,1,38.21,7.18Zm-.77,0a1.52,1.52,0,0,0-.19-.79.77.77,0,0,0-1.35,0,1.57,1.57,0,0,0-.2.81,1.54,1.54,0,0,0,.2.79.75.75,0,0,0,.67.4A.75.75,0,0,0,37.24,8,1.46,1.46,0,0,0,37.44,7.2Z"/><path class="cls-1" d="M43.77,5.54l-1,3.33h-.68l-.43-1.44q-.16-.55-.27-1.08h0a10.65,10.65,0,0,1-.27,1.08l-.46,1.44h-.69l-1-3.33h.76l.38,1.58c.09.38.17.74.23,1.07h0c0-.28.15-.63.27-1.06l.48-1.59h.6l.45,1.56c.11.38.2.74.27,1.09h0a10.17,10.17,0,0,1,.23-1.09L43,5.54Z"/><path class="cls-1" d="M47.61,8.87h-.74V7c0-.59-.22-.88-.67-.88a.65.65,0,0,0-.53.24.87.87,0,0,0-.21.57v2h-.74V6.49c0-.29,0-.61,0-1h.65l0,.52h0a1,1,0,0,1,.38-.4,1.21,1.21,0,0,1,.67-.19,1.07,1.07,0,0,1,.78.3,1.47,1.47,0,0,1,.38,1.11Z"/><path class="cls-1" d="M49.66,8.87h-.74V4h.74Z"/><path class="cls-1" d="M54,7.18a1.79,1.79,0,0,1-.44,1.26A1.55,1.55,0,0,1,52.36,9a1.48,1.48,0,0,1-1.17-.49,1.76,1.76,0,0,1-.43-1.23A1.83,1.83,0,0,1,51.21,6a1.55,1.55,0,0,1,1.21-.49A1.51,1.51,0,0,1,53.6,6,1.76,1.76,0,0,1,54,7.18Zm-.77,0a1.52,1.52,0,0,0-.19-.79.77.77,0,0,0-1.35,0,1.57,1.57,0,0,0-.2.81,1.54,1.54,0,0,0,.2.79.77.77,0,0,0,.67.4A.75.75,0,0,0,53.05,8,1.46,1.46,0,0,0,53.25,7.2Z"/><path class="cls-1" d="M57.61,8.87H57l-.06-.38h0a1.13,1.13,0,0,1-1,.46,1,1,0,0,1-.77-.3A1,1,0,0,1,54.87,8,1.05,1.05,0,0,1,55.38,7a2.7,2.7,0,0,1,1.44-.31V6.66q0-.66-.69-.66a1.58,1.58,0,0,0-.87.24l-.15-.48a2.16,2.16,0,0,1,1.15-.29c.87,0,1.3.46,1.3,1.38V8.08A5.3,5.3,0,0,0,57.61,8.87Zm-.77-1.14V7.21c-.82,0-1.22.21-1.22.67a.5.5,0,0,0,.14.4.53.53,0,0,0,.36.13.69.69,0,0,0,.45-.16.61.61,0,0,0,.26-.39A.53.53,0,0,0,56.84,7.73Z"/><path class="cls-1" d="M61.83,8.87h-.66l0-.53h0A1.1,1.1,0,0,1,60,9a1.26,1.26,0,0,1-1-.47,1.84,1.84,0,0,1-.4-1.23,2,2,0,0,1,.43-1.31,1.35,1.35,0,0,1,1-.47,1,1,0,0,1,.94.45h0V4h.74V8Q61.8,8.47,61.83,8.87Zm-.77-1.4V6.91a1.3,1.3,0,0,0,0-.23.94.94,0,0,0-.27-.45.75.75,0,0,0-.5-.18.77.77,0,0,0-.65.33,1.39,1.39,0,0,0-.24.84,1.31,1.31,0,0,0,.23.8.77.77,0,0,0,.65.33.7.7,0,0,0,.58-.27A.9.9,0,0,0,61.06,7.47Z"/><path class="cls-1" d="M68.17,7.18a1.84,1.84,0,0,1-.44,1.26A1.58,1.58,0,0,1,66.5,9a1.5,1.5,0,0,1-1.17-.49,1.76,1.76,0,0,1-.43-1.23A1.83,1.83,0,0,1,65.35,6a1.55,1.55,0,0,1,1.21-.49A1.51,1.51,0,0,1,67.74,6,1.76,1.76,0,0,1,68.17,7.18Zm-.77,0a1.52,1.52,0,0,0-.2-.79.74.74,0,0,0-.67-.4.75.75,0,0,0-.68.4,1.57,1.57,0,0,0-.2.81,1.54,1.54,0,0,0,.2.79.77.77,0,0,0,.68.4A.74.74,0,0,0,67.19,8,1.47,1.47,0,0,0,67.4,7.2Z"/><path class="cls-1" d="M72.15,8.87h-.74V7c0-.59-.22-.88-.67-.88a.68.68,0,0,0-.54.24.92.92,0,0,0-.2.57v2h-.74V6.49c0-.29,0-.61,0-1h.65l0,.52h0a1,1,0,0,1,.38-.4A1.21,1.21,0,0,1,71,5.47a1.09,1.09,0,0,1,.78.3,1.51,1.51,0,0,1,.38,1.11Z"/><path class="cls-1" d="M77.14,6.09h-.82V7.71c0,.42.15.62.44.62a1.55,1.55,0,0,0,.33,0l0,.56a1.84,1.84,0,0,1-.58.08.9.9,0,0,1-.69-.27,1.3,1.3,0,0,1-.24-.89V6.09h-.49V5.54h.49V4.93l.72-.22v.83h.82Z"/><path class="cls-1" d="M81.07,8.87h-.75V7c0-.6-.22-.9-.67-.9a.69.69,0,0,0-.7.52.7.7,0,0,0,0,.27v2h-.74V4h.74V6h0a1.13,1.13,0,0,1,1-.55,1,1,0,0,1,.76.3,1.53,1.53,0,0,1,.38,1.12Z"/><path class="cls-1" d="M85.11,7.05a2.92,2.92,0,0,1,0,.33H82.86a1,1,0,0,0,.33.76,1.11,1.11,0,0,0,.72.23,2.36,2.36,0,0,0,.9-.16l.12.52a2.77,2.77,0,0,1-1.12.2,1.64,1.64,0,0,1-1.22-.45,1.71,1.71,0,0,1-.44-1.23A1.92,1.92,0,0,1,82.56,6a1.42,1.42,0,0,1,1.17-.54A1.24,1.24,0,0,1,84.82,6,1.76,1.76,0,0,1,85.11,7.05Zm-.7-.19a1.05,1.05,0,0,0-.15-.57A.64.64,0,0,0,83.67,6a.71.71,0,0,0-.59.3,1.2,1.2,0,0,0-.22.58Z"/></g></g></svg>