<svg xmlns="http://www.w3.org/2000/svg" xmlns:xlink="http://www.w3.org/1999/xlink" viewBox="0 0 94.68 27.03"><defs><style>.cls-1,.cls-2,.cls-9{fill:#fff;}.cls-1{stroke:#fff;stroke-miterlimit:10;stroke-width:0.2px;}.cls-3{fill:url(#linear-gradient);}.cls-4{fill:url(#linear-gradient-2);}.cls-5{fill:url(#linear-gradient-3);}.cls-6{fill:url(#linear-gradient-4);}.cls-7,.cls-8,.cls-9{isolation:isolate;}.cls-7{opacity:0.2;}.cls-8{opacity:0.12;}.cls-9{opacity:0.25;}</style><linearGradient id="linear-gradient" x1="15.3" y1="23.26" x2="3.75" y2="11.7" gradientTransform="matrix(1, 0, 0, -1, 0, 29)" gradientUnits="userSpaceOnUse"><stop offset="0" stop-color="#00a0ff"/><stop offset="0.01" stop-color="#00a1ff"/><stop offset="0.26" stop-color="#00beff"/><stop offset="0.51" stop-color="#00d2ff"/><stop offset="0.76" stop-color="#00dfff"/><stop offset="1" stop-color="#00e3ff"/></linearGradient><linearGradient id="linear-gradient-2" x1="23.73" y1="15.48" x2="6.76" y2="15.48" gradientTransform="matrix(1, 0, 0, -1, 0, 29)" gradientUnits="userSpaceOnUse"><stop offset="0" stop-color="#ffe000"/><stop offset="0.41" stop-color="#ffbd00"/><stop offset="0.78" stop-color="orange"/><stop offset="1" stop-color="#ff9c00"/></linearGradient><linearGradient id="linear-gradient-3" x1="17.36" y1="14.04" x2="1.59" y2="-1.73" gradientTransform="matrix(1, 0, 0, -1, 0, 29)" gradientUnits="userSpaceOnUse"><stop offset="0" stop-color="#ff3a44"/><stop offset="1" stop-color="#c31162"/></linearGradient><linearGradient id="linear-gradient-4" x1="5.22" y1="29.08" x2="12.26" y2="22.04" gradientTransform="matrix(1, 0, 0, -1, 0, 29)" gradientUnits="userSpaceOnUse"><stop offset="0" stop-color="#32a071"/><stop offset="0.07" stop-color="#2da771"/><stop offset="0.48" stop-color="#15cf74"/><stop offset="0.8" stop-color="#06e775"/><stop offset="1" stop-color="#00f076"/></linearGradient></defs><g id="Layer_2" data-name="Layer 2"><g id="Layer_1-2" data-name="Layer 1"><path d="M91.18,27H3.51A3.46,3.46,0,0,1,0,23.65V3.38A3.46,3.46,0,0,1,3.51,0H91.18a3.45,3.45,0,0,1,3.5,3.38V23.65A3.45,3.45,0,0,1,91.18,27Z"/><path class="cls-1" d="M33.26,6.92a1.84,1.84,0,0,1-.52,1.36,2.14,2.14,0,0,1-1.55.59,2.18,2.18,0,0,1-1.55-.6,2.1,2.1,0,0,1,0-3,2.15,2.15,0,0,1,1.55-.61,2.27,2.27,0,0,1,.86.17,1.61,1.61,0,0,1,.66.45l-.37.36a1.44,1.44,0,0,0-1.15-.48A1.63,1.63,0,0,0,30,5.59a1.53,1.53,0,0,0-.48,1.17A1.53,1.53,0,0,0,30,7.93a1.63,1.63,0,0,0,1.15.45,1.58,1.58,0,0,0,1.17-.46,1.21,1.21,0,0,0,.36-.82H31.19V6.62h2A1.53,1.53,0,0,1,33.26,6.92Z"/><path class="cls-1" d="M36.49,5.23H34.57V6.51H36.3V7H34.57V8.29h1.92v.49H34v-4h2.46Z"/><path class="cls-1" d="M38.77,8.78h-.54V5.23H37.05v-.5H40v.5H38.77Z"/><path class="cls-1" d="M42,8.78v-4h.54v4Z"/><path class="cls-1" d="M45,8.78h-.54V5.23H43.26v-.5h2.89v.5H45Z"/><path class="cls-1" d="M51.63,8.26a2.12,2.12,0,0,1-1.55.61,2.1,2.1,0,0,1-1.54-.61,2,2,0,0,1-.62-1.5,2.05,2.05,0,0,1,.62-1.51,2.24,2.24,0,0,1,3.08,0,2,2,0,0,1,.63,1.5A2,2,0,0,1,51.63,8.26Zm-2.69-.34a1.59,1.59,0,0,0,1.14.46,1.61,1.61,0,0,0,1.15-.46,1.55,1.55,0,0,0,.47-1.16,1.62,1.62,0,1,0-3.23,0A1.55,1.55,0,0,0,48.94,7.92Z"/><path class="cls-1" d="M53,8.78v-4h.65l2.05,3.15h0l0-.78V4.73h.54v4h-.56l-2.14-3.3h0l0,.78V8.78Z"/><path class="cls-2" d="M47.79,14.7a2.88,2.88,0,1,0,3,2.87A2.89,2.89,0,0,0,47.79,14.7Zm0,4.61a1.74,1.74,0,1,1,1.68-1.74A1.69,1.69,0,0,1,47.79,19.31ZM41.26,14.7a2.88,2.88,0,1,0,3,2.87A2.89,2.89,0,0,0,41.26,14.7Zm0,4.61a1.74,1.74,0,1,1,1.68-1.74A1.69,1.69,0,0,1,41.26,19.31Zm-7.77-3.73V16.8h3a2.43,2.43,0,0,1-.69,1.53,3.13,3.13,0,0,1-2.33.9,3.25,3.25,0,1,1,2.28-5.62l.89-.86a4.48,4.48,0,0,0-3.17-1.23A4.61,4.61,0,0,0,28.79,16a4.62,4.62,0,0,0,4.7,4.47,4.33,4.33,0,0,0,3.23-1.26,3.94,3.94,0,0,0,1.09-2.85,4.34,4.34,0,0,0-.06-.76Zm31.77,1a2.73,2.73,0,0,0-2.55-1.83,2.77,2.77,0,0,0-2.81,2.87,2.87,2.87,0,0,0,3,2.88,3,3,0,0,0,2.48-1.28l-1-.65a1.72,1.72,0,0,1-1.47.79,1.52,1.52,0,0,1-1.45-.87l4-1.59Zm-4.06.95a1.59,1.59,0,0,1,1.56-1.67,1.14,1.14,0,0,1,1.1.61ZM58,20.27h1.31V11.82H58Zm-2.14-4.93h-.05a2.09,2.09,0,0,0-1.57-.64,2.88,2.88,0,0,0,0,5.75,2.06,2.06,0,0,0,1.57-.66h.05v.42a1.49,1.49,0,0,1-1.6,1.68,1.64,1.64,0,0,1-1.5-1l-1.14.46A2.85,2.85,0,0,0,54.21,23a2.68,2.68,0,0,0,2.84-3V14.87H55.81Zm-1.51,4a1.74,1.74,0,0,1,0-3.48,1.64,1.64,0,0,1,1.6,1.75A1.63,1.63,0,0,1,54.3,19.31Zm17.1-7.49H68.27v8.45h1.31v-3.2H71.4a2.74,2.74,0,0,0,2.88-2.62A2.75,2.75,0,0,0,71.4,11.82Zm0,4.08H69.58V13h1.86a1.45,1.45,0,1,1,0,2.9Zm8.09-1.22A2.47,2.47,0,0,0,77.19,16l1.16.46a1.27,1.27,0,0,1,1.2-.62,1.24,1.24,0,0,1,1.37,1.09V17a2.93,2.93,0,0,0-1.36-.33c-1.25,0-2.53.66-2.53,1.9a2,2,0,0,0,2.18,1.86,1.88,1.88,0,0,0,1.67-.82h0v.65h1.27V17A2.37,2.37,0,0,0,79.53,14.68Zm-.16,4.63c-.43,0-1-.2-1-.72s.75-.9,1.39-.9a2.32,2.32,0,0,1,1.19.29A1.56,1.56,0,0,1,79.37,19.31Zm7.42-4.44-1.5,3.66h-.05l-1.55-3.66H82.28L84.61,20l-1.33,2.84h1.37l3.59-8ZM75,20.27h1.31V11.82H75Z"/><path class="cls-3" d="M7.32,5.09A1.34,1.34,0,0,0,7,6V21a1.34,1.34,0,0,0,.33,1l0,0,8.69-8.38v-.19L7.37,5Z"/><path class="cls-4" d="M19,16.41l-2.9-2.8v-.19L19,10.63l.06,0,3.43,1.88c1,.54,1,1.41,0,2L19,16.37Z"/><path class="cls-5" d="M19,16.37l-3-2.85L7.32,21.94a1.18,1.18,0,0,0,1.46,0L19,16.37"/><path class="cls-6" d="M19,10.66,8.78,5.05a1.18,1.18,0,0,0-1.46,0l8.74,8.43Z"/><path class="cls-7" d="M19,16.31,8.78,21.88a1.22,1.22,0,0,1-1.41,0h0l0,.05h0l0,0h0a1.22,1.22,0,0,0,1.41,0L19,16.37Z"/><path class="cls-8" d="M7.32,21.84A1.34,1.34,0,0,1,7,20.89V21a1.34,1.34,0,0,0,.33,1l0-.05Z"/><path class="cls-8" d="M22.45,14.39,19,16.31l.06.06,3.43-1.88a1.19,1.19,0,0,0,.74-1h0A1.24,1.24,0,0,1,22.45,14.39Z"/><path class="cls-9" d="M8.78,5.15l13.67,7.49a1.24,1.24,0,0,1,.74.88h0a1.19,1.19,0,0,0-.74-1L8.78,5.05C7.8,4.52,7,5,7,6v.1C7,5.06,7.8,4.61,8.78,5.15Z"/></g></g></svg>