<svg xmlns="http://www.w3.org/2000/svg" viewBox="0 0 93.98 27.03"><defs><style>.cls-1{fill:#fff;}</style></defs><g id="Layer_2" data-name="Layer 2"><g id="Layer_1-2" data-name="Layer 1"><path d="M90.5,27h-87A3.44,3.44,0,0,1,0,23.65V3.38A3.44,3.44,0,0,1,3.48,0h87A3.44,3.44,0,0,1,94,3.38V23.65A3.44,3.44,0,0,1,90.5,27Z"/><path class="cls-1" d="M13.53,6.29a2.12,2.12,0,0,1,.05.47c-.67.29-.92.5-.91,1.49v.61L12.21,9v-.7c0-1.46.56-1.69,1.32-2M14.86,6a3.4,3.4,0,0,1,.08.46c1.19-.17,1.17.33,1.17,1.36v.38l.45-.09V7.79c0-1.6-.25-2-1.7-1.82M10.15,9.36V7.26c0-1.31.66-1.71,1.9-2,1.87-.44,2,.77,2,1.54V8.58l.46-.09V6.84C14.5,5.38,14,4.29,12,4.77c-1.12.25-2.27.54-2.27,2.44V9.45Zm5.49,5.53H12.11V12.34l3.53-.51Zm0,3.61L12.11,18V15.24h3.53Zm-3.88-3.61H9V12.76l2.8-.4Zm0,3.07L9,17.57V15.24h2.8Zm7.09-9.79L6.25,10.69v9.17l12.6,2.51,2.52-.91V9.09Z"/><path class="cls-1" d="M29.22,8.51a2.48,2.48,0,0,1-.31,1.24,2.07,2.07,0,0,1-.88.83,2.74,2.74,0,0,1-1.3.29H25.51V6.27h1.28c1.62,0,2.43.74,2.43,2.24m-.57,0c0-1.18-.62-1.77-1.88-1.77h-.72v3.63h.69a2,2,0,0,0,1.41-.49,1.84,1.84,0,0,0,.5-1.37M33,9.22a1.81,1.81,0,0,1-.44,1.26,1.6,1.6,0,0,1-1.2.47,1.51,1.51,0,0,1-1.16-.46,1.72,1.72,0,0,1-.44-1.22A1.78,1.78,0,0,1,30.25,8a1.6,1.6,0,0,1,1.23-.48A1.5,1.5,0,0,1,32.63,8,1.85,1.85,0,0,1,33,9.22m-.54,0a1.5,1.5,0,0,0-.27-1A1,1,0,0,0,31.44,8a1,1,0,0,0-.8.34,1.42,1.42,0,0,0-.3,1,1.32,1.32,0,0,0,.3.92,1,1,0,0,0,.8.33,1,1,0,0,0,.79-.32,1.46,1.46,0,0,0,.27-.94M38,7.58l-1,3.29h-.55l-.68-2.35a1.86,1.86,0,0,1,0-.3h0a1.67,1.67,0,0,1-.07.29l-.74,2.36H34.4l-1-3.29H34l.68,2.48a2,2,0,0,1,0,.29h0a1,1,0,0,1,.06-.3l.75-2.47H36l.69,2.48a2.43,2.43,0,0,1,0,.3h0a1,1,0,0,1,.05-.3l.67-2.48Zm3.34,3.29h-.52V9c0-.7-.26-1-.77-1a.83.83,0,0,0-.65.3,1.09,1.09,0,0,0-.26.75v1.87h-.52V7.58h.52v.55h0a1.19,1.19,0,0,1,1.08-.63,1,1,0,0,1,.83.36,1.55,1.55,0,0,1,.28,1Zm1.52,0h-.52V6h.52Zm4.06-1.65a1.77,1.77,0,0,1-.45,1.26,1.56,1.56,0,0,1-1.19.47,1.5,1.5,0,0,1-1.16-.46,1.68,1.68,0,0,1-.44-1.22A1.78,1.78,0,0,1,44.13,8a1.58,1.58,0,0,1,1.23-.48A1.46,1.46,0,0,1,46.5,8a1.81,1.81,0,0,1,.42,1.26m-.54,0a1.45,1.45,0,0,0-.28-1A1,1,0,0,0,45.32,8a1,1,0,0,0-.81.34,1.47,1.47,0,0,0-.29,1,1.32,1.32,0,0,0,.3.92,1,1,0,0,0,.8.33,1,1,0,0,0,.79-.32,1.46,1.46,0,0,0,.27-.94m3.68,1.63h-.52v-.51h0a1.2,1.2,0,0,1-1.77.34.92.92,0,0,1-.29-.7c0-.61.37-1,1.09-1.07l1-.14c0-.56-.23-.84-.68-.84a1.59,1.59,0,0,0-1.07.41V7.82a1.27,1.27,0,0,1,.49-.21,2.2,2.2,0,0,1,.62-.11c.78,0,1.16.41,1.16,1.23Zm-.52-1.66-.8.11a1.2,1.2,0,0,0-.57.2A.53.53,0,0,0,48,10a.47.47,0,0,0,.18.39.68.68,0,0,0,.45.15.86.86,0,0,0,.65-.27,1,1,0,0,0,.26-.69Zm4.3,1.66h-.53v-.56h0a1.22,1.22,0,0,1-1.13.64,1.25,1.25,0,0,1-1-.44,1.87,1.87,0,0,1-.37-1.2A2,2,0,0,1,51.21,8a1.37,1.37,0,0,1,1.1-.5,1.06,1.06,0,0,1,1,.54h0V6h.53Zm-.53-1.48V8.9A.93.93,0,0,0,53,8.22.9.9,0,0,0,52.38,8a.92.92,0,0,0-.76.36,1.55,1.55,0,0,0-.28,1,1.38,1.38,0,0,0,.27.9.84.84,0,0,0,.71.32.9.9,0,0,0,.71-.31,1.15,1.15,0,0,0,.28-.8m4.75-2.92a.68.68,0,0,0-.35-.09c-.37,0-.55.23-.55.7v.5h.77V8h-.77v2.84h-.53V8h-.56V7.58h.56V7.05a1.13,1.13,0,0,1,.3-.81,1,1,0,0,1,.75-.31,1,1,0,0,1,.38.06Zm2.15,1.65a.68.68,0,0,0-.4-.11.65.65,0,0,0-.57.33A1.5,1.5,0,0,0,59,9.2v1.67h-.53V7.58H59v.68h0a1.35,1.35,0,0,1,.34-.54.78.78,0,0,1,.52-.19.89.89,0,0,1,.32,0Zm3.48,1.1a1.77,1.77,0,0,1-.45,1.26,1.57,1.57,0,0,1-1.19.47,1.52,1.52,0,0,1-1.17-.46,1.72,1.72,0,0,1-.43-1.22A1.82,1.82,0,0,1,60.89,8a1.6,1.6,0,0,1,1.23-.48A1.5,1.5,0,0,1,63.27,8a1.81,1.81,0,0,1,.42,1.26m-.54,0a1.5,1.5,0,0,0-.28-1A1,1,0,0,0,62.09,8a1,1,0,0,0-.81.34,1.47,1.47,0,0,0-.29,1,1.37,1.37,0,0,0,.29.92,1,1,0,0,0,.81.33.94.94,0,0,0,.78-.32,1.46,1.46,0,0,0,.28-.94m6,1.63h-.53V9a1.46,1.46,0,0,0-.16-.79A.67.67,0,0,0,67.91,8a.7.7,0,0,0-.57.31A1.17,1.17,0,0,0,67.1,9v1.87h-.53V8.92c0-.64-.25-1-.75-1a.7.7,0,0,0-.57.29A1.22,1.22,0,0,0,65,9v1.87H64.5V7.58H65V8.1h0a1.11,1.11,0,0,1,1-.6,1,1,0,0,1,.58.18.89.89,0,0,1,.35.51,1.18,1.18,0,0,1,1.1-.69q1.08,0,1.08,1.35Z"/><path class="cls-1" d="M34.65,13.83l-1.94,6.86h-.94l-1.42-5a3.92,3.92,0,0,1-.1-.69h0a3.89,3.89,0,0,1-.13.68l-1.42,5h-.93l-2-6.86h.88l1.46,5.26a4.55,4.55,0,0,1,.12.69h0a4,4,0,0,1,.15-.69l1.52-5.26h.77l1.45,5.3a4,4,0,0,1,.12.64h0a5,5,0,0,1,.13-.66l1.41-5.28Zm1.55.35a.5.5,0,0,1-.15.37.52.52,0,0,1-.36.14.49.49,0,0,1-.37-.14.48.48,0,0,1-.15-.37.49.49,0,0,1,.15-.36.5.5,0,0,1,.37-.15.51.51,0,0,1,.37.15.52.52,0,0,1,.14.36m-.13,6.51h-.79v-4.9h.79Zm5.25,0h-.78V17.9q0-1.56-1.14-1.56a1.25,1.25,0,0,0-1,.44A1.61,1.61,0,0,0,38,17.9v2.79h-.78v-4.9H38v.82h0a1.75,1.75,0,0,1,1.61-.94,1.48,1.48,0,0,1,1.23.53,2.34,2.34,0,0,1,.42,1.49Zm5.45,0H46v-.83h0a2,2,0,0,1-3.16.28,2.74,2.74,0,0,1-.55-1.78,3,3,0,0,1,.61-1.95,2,2,0,0,1,1.63-.74,1.58,1.58,0,0,1,1.47.8h0v-3h.79ZM46,18.47v-.72a1.41,1.41,0,0,0-2.51-.88,2.24,2.24,0,0,0-.42,1.45,2.09,2.09,0,0,0,.4,1.33,1.26,1.26,0,0,0,1,.49,1.39,1.39,0,0,0,1.07-.47,1.76,1.76,0,0,0,.41-1.2m6.58-.25a2.65,2.65,0,0,1-.66,1.88,2.33,2.33,0,0,1-1.78.71,2.3,2.3,0,0,1-1.74-.69,2.56,2.56,0,0,1-.64-1.82,2.7,2.7,0,0,1,.66-1.92,2.42,2.42,0,0,1,1.83-.71,2.2,2.2,0,0,1,1.71.68,2.7,2.7,0,0,1,.62,1.87m-.8,0a2.2,2.2,0,0,0-.41-1.42,1.65,1.65,0,0,0-2.37,0,2.1,2.1,0,0,0-.44,1.42A2,2,0,0,0,49,19.64a1.55,1.55,0,0,0,1.2.5,1.42,1.42,0,0,0,1.17-.49,2.13,2.13,0,0,0,.41-1.4m7.94-2.46-1.47,4.9h-.81l-1-3.51a3.4,3.4,0,0,1-.08-.45h0a1.9,1.9,0,0,1-.1.44l-1.09,3.52h-.79l-1.48-4.9h.83l1,3.69a2.46,2.46,0,0,1,.06.44h0a2.23,2.23,0,0,1,.09-.45L56,15.79h.72l1,3.69a1.93,1.93,0,0,1,.07.45h0a1.7,1.7,0,0,1,.08-.45l1-3.69ZM63,19.38a1.25,1.25,0,0,1-.49,1,2,2,0,0,1-1.3.4,2.42,2.42,0,0,1-1.22-.3v-.84a2,2,0,0,0,1.28.47c.62,0,.93-.23.93-.68a.62.62,0,0,0-.18-.46,3.84,3.84,0,0,0-.83-.47,2.47,2.47,0,0,1-.92-.59,1.36,1.36,0,0,1,.22-1.86,1.89,1.89,0,0,1,1.24-.41,2.38,2.38,0,0,1,1,.23v.79a1.86,1.86,0,0,0-1.11-.35,1,1,0,0,0-.63.19.64.64,0,0,0-.23.5.68.68,0,0,0,.18.5,2.88,2.88,0,0,0,.75.41,2.67,2.67,0,0,1,1,.62,1.2,1.2,0,0,1,.28.82"/><path class="cls-1" d="M70,19a1.64,1.64,0,0,1-.61,1.36,2.56,2.56,0,0,1-1.66.49,3.22,3.22,0,0,1-.87-.13,2.35,2.35,0,0,1-.68-.26v-1a2.55,2.55,0,0,0,.77.44,2.73,2.73,0,0,0,.89.17c.88,0,1.32-.34,1.32-1a1.07,1.07,0,0,0-.28-.73,5.14,5.14,0,0,0-1.16-.81,4.22,4.22,0,0,1-1.19-.91,1.76,1.76,0,0,1,.27-2.37,2.35,2.35,0,0,1,1.57-.51,2.9,2.9,0,0,1,1.35.24v.9a2.19,2.19,0,0,0-1.39-.42,1.45,1.45,0,0,0-.93.28.9.9,0,0,0-.37.76,1.17,1.17,0,0,0,.11.54,1.25,1.25,0,0,0,.37.41,7.73,7.73,0,0,0,.86.54,4.5,4.5,0,0,1,1.27,1A1.6,1.6,0,0,1,70,19m3.25,1.68a1.48,1.48,0,0,1-.74.16c-.85,0-1.28-.48-1.28-1.44v-2.9h-.84v-.67h.84V14.6l.78-.26v1.45h1.24v.67H72v2.76a1.14,1.14,0,0,0,.17.7.68.68,0,0,0,.56.21.84.84,0,0,0,.51-.16Zm5.41-2.42A2.65,2.65,0,0,1,78,20.1a2.31,2.31,0,0,1-1.77.71,2.27,2.27,0,0,1-1.74-.69,2.57,2.57,0,0,1-.65-1.82,2.66,2.66,0,0,1,.67-1.92,2.39,2.39,0,0,1,1.83-.71,2.2,2.2,0,0,1,1.71.68,2.7,2.7,0,0,1,.62,1.87m-.81,0a2.15,2.15,0,0,0-.41-1.41,1.43,1.43,0,0,0-1.17-.5,1.49,1.49,0,0,0-1.19.51,2,2,0,0,0-.44,1.42,2,2,0,0,0,.44,1.38,1.5,1.5,0,0,0,1.19.49,1.46,1.46,0,0,0,1.18-.49,2.12,2.12,0,0,0,.4-1.4m4.18-1.66a1,1,0,0,0-.6-.16,1,1,0,0,0-.84.49,2.24,2.24,0,0,0-.33,1.27v2.5H79.5v-4.9h.78v1h0a1.8,1.8,0,0,1,.5-.8,1.15,1.15,0,0,1,.78-.29,1.37,1.37,0,0,1,.47.06Zm4.73,1.85H83.32a1.79,1.79,0,0,0,.44,1.26,1.49,1.49,0,0,0,1.16.44,2.42,2.42,0,0,0,1.51-.53v.73a2.81,2.81,0,0,1-1.7.47,2.08,2.08,0,0,1-1.64-.68,2.76,2.76,0,0,1-.58-1.87,3,3,0,0,1,.29-1.33,2.31,2.31,0,0,1,.81-.93,2.11,2.11,0,0,1,1.15-.33,1.87,1.87,0,0,1,1.49.62A2.62,2.62,0,0,1,86.78,18Zm-.8-.67a1.65,1.65,0,0,0-.33-1.05,1.11,1.11,0,0,0-.9-.38,1.27,1.27,0,0,0-.93.39,1.88,1.88,0,0,0-.49,1Z"/></g></g></svg>