<svg xmlns="http://www.w3.org/2000/svg" viewBox="0 0 20.26 19.64"><defs><style>.cls-1{fill:#20a9c4;}</style></defs><g id="Layer_2" data-name="Layer 2"><g id="Layer_1-2" data-name="Layer 1"><path class="cls-1" d="M10.41,12.56a.45.45,0,0,1-.73,0L6.52,8.65A.36.36,0,0,0,6,8.59l-.61.49a.35.35,0,0,0-.05.5L9.8,15.14a.45.45,0,0,0,.73,0L17.07,5.2a.28.28,0,0,1,.46,0A8.26,8.26,0,0,1,19,9.82a8.69,8.69,0,0,1-8.83,8.52A8.69,8.69,0,0,1,1.3,9.82,8.69,8.69,0,0,1,10.13,1.3a9.09,9.09,0,0,1,5,1.52l.78-1A10.12,10.12,0,0,0,10.13,0,10,10,0,0,0,0,9.82a10,10,0,0,0,10.13,9.82A10,10,0,0,0,20.26,9.82,9.64,9.64,0,0,0,17,2.64"/></g></g></svg>